<svg xmlns="http://www.w3.org/2000/svg" version="1.1" xmlns:xlink="http://www.w3.org/1999/xlink" xmlns:svgjs="http://svgjs.dev/svgjs" width="360" height="740" preserveAspectRatio="none" viewBox="0 0 360 740"><g mask="url(&quot;#SvgjsMask1007&quot;)" fill="none"><rect width="360" height="740" x="0" y="0" fill="rgba(27, 94, 32, 1)"></rect><path d="M207.61 629.39L215.93 629.39L215.93 641.21L207.61 641.21z" stroke="#d3b714"></path><path d="M289.66 223.18a17.48 17.48 0 1 0 3.96 34.73z" fill="rgba(120, 162, 139, 1)"></path><path d="M317.45 69.77L326.89 69.77L326.89 76.08L317.45 76.08z" fill="#d3b714"></path><path d="M72.24 503.55L103.85 503.55L103.85 529.06L72.24 529.06z" stroke="rgba(120, 162, 139, 1)"></path><path d="M113.58 456.64L124.92 456.64L124.92 477.8L113.58 477.8z" fill="#d3b714"></path><path d="M204.02 209.99 a2.1 2.1 0 1 0 4.2 0 a2.1 2.1 0 1 0 -4.2 0z" stroke="rgba(120, 162, 139, 1)"></path><path d="M124.79 699.64L133.75 699.64L133.75 708.6L124.79 708.6z" fill="rgba(120, 162, 139, 1)"></path><path d="M65.05 353.92L94.36 353.92L94.36 384.21L65.05 384.21z" fill="rgba(120, 162, 139, 1)"></path><path d="M20 280.24 a26.25 26.25 0 1 0 52.5 0 a26.25 26.25 0 1 0 -52.5 0z" fill="rgba(120, 162, 139, 1)"></path><path d="M52.58 189.65L70 189.65L70 198.3L52.58 198.3z" fill="#d3b714"></path><path d="M342.69 151.59a1.58 1.58 0 1 0-0.8-3.06z" stroke="rgba(120, 162, 139, 1)"></path><path d="M313.66 14.44L341.3 14.44L341.3 42.08L313.66 42.08z" fill="#d3b714"></path><path d="M315.91 154.68L345.3 154.68L345.3 184.07L315.91 184.07z" fill="rgba(120, 162, 139, 1)"></path><path d="M175.51 65.59L207.72 65.59L207.72 97.8L175.51 97.8z" fill="rgba(120, 162, 139, 1)"></path><path d="M67.17 695a8.23 8.23 0 1 0 16.04 3.66z" fill="rgba(120, 162, 139, 1)"></path><path d="M310.8 113.01a4.86 4.86 0 1 0 6.22 7.47z" stroke="#d3b714"></path><path d="M184.32 44.37 a3.33 3.33 0 1 0 6.66 0 a3.33 3.33 0 1 0 -6.66 0z" fill="#d3b714"></path><path d="M19.74 480.16a26.68 26.68 0 1 0 7.68 52.8z" stroke="#d3b714"></path><path d="M266.57 342.76a7.68 7.68 0 1 0 14.94 3.59z" stroke="#d3b714"></path><path d="M203.23 379.36a17.36 17.36 0 1 0-19.78-28.54z" fill="#d3b714"></path><path d="M245.65 575.22L259.08 575.22L259.08 581.73L245.65 581.73z" stroke="#d3b714"></path><path d="M224.46 423.52L253.61 423.52L253.61 447.55L224.46 447.55z" fill="rgba(120, 162, 139, 1)"></path><path d="M79.7 315.57L110.86 315.57L110.86 320.05L79.7 320.05z" fill="rgba(120, 162, 139, 1)"></path><path d="M322.68 591.42 a11.63 11.63 0 1 0 23.26 0 a11.63 11.63 0 1 0 -23.26 0z" stroke="#d3b714"></path><path d="M332.55 217.52L355.25 217.52L355.25 240.22L332.55 240.22z" stroke="rgba(120, 162, 139, 1)"></path><path d="M146.02 25.72L165.32 25.72L165.32 37.02L146.02 37.02z" fill="rgba(120, 162, 139, 1)"></path></g><defs><mask id="SvgjsMask1007"><rect width="360" height="740" fill="#ffffff"></rect></mask></defs></svg>