<svg xmlns="http://www.w3.org/2000/svg" version="1.1" xmlns:xlink="http://www.w3.org/1999/xlink" xmlns:svgjs="http://svgjs.dev/svgjs" width="360" height="740" preserveAspectRatio="none" viewBox="0 0 360 740"><g mask="url(&quot;#SvgjsMask1009&quot;)" fill="none"><rect width="360" height="740" x="0" y="0" fill="rgba(27, 94, 32, 1)"></rect><path d="M346.66 503.31a3.57 3.57 0 1 0-1.37-7.01z" fill="rgba(120, 162, 139, 1)"></path><path d="M136.79 8.05L165.85 8.05L165.85 37.11L136.79 37.11z" stroke="rgba(120, 162, 139, 1)"></path><path d="M288.88 35.51L292.15 35.51L292.15 38.78L288.88 38.78z" stroke="rgba(120, 162, 139, 1)"></path><path d="M224.46 699.24a16.85 16.85 0 1 0 31.44-12.14z" fill="rgba(120, 162, 139, 1)"></path><path d="M326.37 127.01L361.01 127.01L361.01 144.16L326.37 144.16z" fill="#d3b714"></path><path d="M281.42 625.15L285.11 625.15L285.11 625.69L281.42 625.69z" stroke="rgba(120, 162, 139, 1)"></path><path d="M262.03 409.86L286.63 409.86L286.63 434.46L262.03 434.46z" fill="rgba(120, 162, 139, 1)"></path><path d="M237.23 592.58a25.58 25.58 0 1 0-43.49 26.95z" fill="#d3b714"></path><path d="M233.71 706.26L242.28 706.26L242.28 714.83L233.71 714.83z" fill="#d3b714"></path><path d="M202.63 618.22L212.42 618.22L212.42 628.01L202.63 628.01z" stroke="rgba(120, 162, 139, 1)"></path><path d="M112.47 410.25L143.2 410.25L143.2 440.98L112.47 440.98z" stroke="rgba(120, 162, 139, 1)"></path><path d="M160.49 68.03 a14.6 14.6 0 1 0 29.2 0 a14.6 14.6 0 1 0 -29.2 0z" fill="#d3b714"></path><path d="M166.16 398.98 a10.49 10.49 0 1 0 20.98 0 a10.49 10.49 0 1 0 -20.98 0z" stroke="rgba(120, 162, 139, 1)"></path><path d="M23.43 273.58L48.15 273.58L48.15 298.3L23.43 298.3z" stroke="rgba(120, 162, 139, 1)"></path><path d="M27.89 319.46 a15.38 15.38 0 1 0 30.76 0 a15.38 15.38 0 1 0 -30.76 0z" fill="#d3b714"></path><path d="M3.1 630.05L19.49 630.05L19.49 646.44L3.1 646.44z" fill="rgba(120, 162, 139, 1)"></path><path d="M242.72 266.66L271.16 266.66L271.16 272.14L242.72 272.14z" fill="rgba(120, 162, 139, 1)"></path><path d="M222.41 388.15 a13.4 13.4 0 1 0 26.8 0 a13.4 13.4 0 1 0 -26.8 0z" stroke="rgba(120, 162, 139, 1)"></path><path d="M275.46 392.31L290.93 392.31L290.93 410.57L275.46 410.57z" fill="rgba(120, 162, 139, 1)"></path><path d="M39.64 305.68 a26.62 26.62 0 1 0 53.24 0 a26.62 26.62 0 1 0 -53.24 0z" fill="rgba(120, 162, 139, 1)"></path><path d="M318.52 203.15L321.81 203.15L321.81 227.96L318.52 227.96z" stroke="rgba(120, 162, 139, 1)"></path><path d="M78.04 603.56a22.8 22.8 0 1 0-38.72 24.09z" stroke="#d3b714"></path><path d="M321.88 613.3 a13.72 13.72 0 1 0 27.44 0 a13.72 13.72 0 1 0 -27.44 0z" fill="#d3b714"></path><path d="M237.87 514.05a4.08 4.08 0 1 0 5.82 5.72z" stroke="rgba(120, 162, 139, 1)"></path><path d="M338.54 443.91 a14.82 14.82 0 1 0 29.64 0 a14.82 14.82 0 1 0 -29.64 0z" stroke="rgba(120, 162, 139, 1)"></path><path d="M159.13 766.51a32.15 32.15 0 1 0-21.36-60.64z" fill="rgba(120, 162, 139, 1)"></path></g><defs><mask id="SvgjsMask1009"><rect width="360" height="740" fill="#ffffff"></rect></mask></defs></svg>